<?xml version="1.0" standalone="no"?>
<!DOCTYPE svg PUBLIC "-//W3C//DTD SVG 20010904//EN"
 "http://www.w3.org/TR/2001/REC-SVG-20010904/DTD/svg10.dtd">
<svg version="1.0" xmlns="http://www.w3.org/2000/svg"
 width="192.000000pt" height="192.000000pt" viewBox="0 0 192.000000 192.000000"
 preserveAspectRatio="xMidYMid meet">

<g transform="translate(0.000000,192.000000) scale(0.100000,-0.100000)"
fill="#000000" stroke="none">
<path d="M862 1856 c2 -19 5 -22 15 -15 8 8 16 2 28 -21 9 -17 20 -28 24 -25
5 2 12 -6 15 -19 3 -13 9 -31 12 -40 5 -12 2 -15 -10 -10 -21 8 -20 2 4 -26
11 -13 20 -37 20 -54 -1 -29 -2 -28 -28 23 -43 86 -36 37 14 -104 25 -71 49
-141 52 -155 5 -22 3 -24 -11 -11 -9 7 -23 11 -31 8 -11 -5 -11 -13 0 -58 19
-74 15 -209 -11 -319 -17 -68 -17 -196 -1 -249 41 -140 -5 -214 -132 -211 -88
2 -100 1 -114 -14 -8 -7 -28 -21 -46 -30 -20 -10 -32 -24 -32 -37 0 -25 36
-74 44 -60 7 11 68 12 85 2 7 -5 -15 -17 -56 -31 -37 -12 -90 -34 -118 -48
-77 -38 -255 -144 -255 -151 0 -4 5 -12 12 -19 20 -20 -28 -15 -73 9 l-41 20
-5 -20 c-7 -28 -11 -27 -49 15 -37 40 -54 38 -54 -7 0 -35 -4 -35 -54 -8 -21
11 -45 18 -52 15 -26 -10 -15 -53 21 -85 31 -27 43 -31 98 -32 34 0 71 -3 82
-6 11 -3 38 -7 60 -10 22 -3 49 -11 60 -17 11 -7 34 -11 50 -9 33 4 129 6 160
4 11 -1 38 2 60 7 28 6 46 4 61 -5 18 -11 24 -9 55 17 18 16 46 29 60 30 14 0
34 9 44 20 10 11 31 20 46 20 21 0 41 13 76 49 56 57 93 105 93 119 0 5 12 12
28 14 42 8 165 -1 176 -12 5 -5 27 -10 48 -10 31 0 46 7 74 35 19 19 43 35 54
35 10 0 22 4 25 10 3 6 26 2 58 -9 107 -38 248 -57 307 -41 43 12 100 54 100
76 0 15 -70 37 -93 29 -8 -4 -17 1 -20 10 -4 8 -18 19 -31 25 -14 5 -26 19
-28 32 -2 16 -13 26 -35 33 -18 5 -33 15 -33 22 0 9 -15 13 -44 13 -24 0 -46
4 -48 9 -4 13 -49 20 -73 11 -11 -4 -30 -3 -42 3 -17 7 -28 6 -47 -7 -14 -9
-36 -16 -48 -15 l-23 0 23 16 c12 8 22 24 22 34 0 10 9 21 20 24 26 8 41 37
30 55 -6 10 -3 21 10 35 20 21 20 22 1 59 l-20 38 32 28 31 28 -36 36 c-20 20
-32 39 -27 42 17 10 51 86 45 100 -3 8 -12 14 -20 14 -9 0 -13 7 -9 23 4 20 2
19 -18 -7 -13 -16 -39 -45 -58 -65 -21 -21 -30 -36 -23 -39 21 -7 81 18 86 36
2 9 4 1 3 -18 -2 -26 -7 -36 -22 -38 -11 -3 -26 -9 -33 -15 -7 -5 -27 -11 -44
-12 -20 -2 -26 0 -17 6 11 6 11 11 1 21 -6 6 -12 8 -12 3 0 -6 -5 -3 -10 5 -6
10 -4 20 7 32 13 15 13 18 2 18 -16 0 -105 -90 -132 -132 -17 -28 -83 -68
-111 -68 -34 0 -25 22 16 40 45 20 70 42 81 71 5 14 -2 14 -46 -5 -29 -11 -53
-24 -55 -28 -2 -5 -13 -8 -24 -8 -18 0 -20 -5 -15 -40 3 -22 1 -40 -4 -40 -5
0 -9 18 -9 40 0 57 -20 50 -21 -7 l-2 -48 -6 41 c-9 54 4 215 24 289 8 33 15
82 15 110 0 36 3 46 10 35 18 -28 8 -127 -26 -257 -8 -28 -14 -65 -14 -82 l0
-31 33 18 c17 10 52 26 77 36 25 10 53 25 63 34 17 15 18 14 24 -7 l6 -23 24
29 c14 15 33 28 44 28 14 0 29 21 58 82 44 95 60 118 74 104 8 -8 -19 -81 -54
-144 -9 -16 -8 -17 11 -7 11 6 20 15 20 20 0 5 13 23 29 41 27 29 32 31 47 18
16 -12 17 -12 11 4 -4 10 -7 23 -7 28 0 5 -7 9 -15 9 -10 0 -15 10 -15 28 0
35 -9 45 -27 31 -10 -9 -13 -3 -13 32 0 56 -12 78 -33 60 -13 -10 -15 -9 -10
7 5 20 -14 102 -23 102 -3 0 -14 -5 -25 -10 -17 -9 -19 -7 -20 17 -1 22 -3 20
-9 -12 -12 -67 -39 -158 -50 -169 -16 -16 -34 8 -22 31 6 10 15 54 21 98 6 43
18 92 26 109 15 29 12 66 -5 66 -5 0 -14 -16 -21 -34 -7 -19 -16 -33 -19 -31
-8 5 -20 -114 -21 -204 0 -31 -6 -72 -13 -91 l-13 -34 -6 33 c-11 54 -8 258 3
241 15 -23 13 103 -2 135 -9 20 -9 31 0 45 13 22 7 46 -14 54 -17 6 -34 -23
-35 -61 0 -26 -1 -25 -15 12 -43 110 -63 152 -82 168 -12 9 -16 9 -19 0 -8
-22 -18 -15 -51 32 -35 50 -63 60 -60 21z m168 -171 c0 -11 15 -68 33 -126 30
-93 33 -114 28 -180 l-6 -74 -24 70 c-12 39 -24 77 -26 85 -2 8 -10 42 -18 75
-8 33 -20 92 -26 130 -7 39 -14 81 -17 95 -5 21 -1 19 25 -15 17 -22 31 -49
31 -60z m87 -177 c-3 -7 -5 -2 -5 12 0 14 2 19 5 13 2 -7 2 -19 0 -25z m198
-186 c-4 -18 -9 -41 -13 -50 -6 -16 -4 -16 20 0 40 26 53 3 17 -31 -12 -11
-18 -24 -14 -30 3 -6 0 -11 -8 -11 -7 0 -23 -22 -36 -49 -29 -66 -48 -82 -67
-56 -8 10 -14 28 -14 39 0 24 36 156 45 165 10 9 -7 -101 -22 -143 -16 -46
-12 -56 10 -23 23 35 46 111 37 122 -4 6 -4 19 1 30 4 11 8 37 8 58 1 23 5 36
11 32 6 -3 10 4 11 17 1 20 2 19 10 -7 5 -16 7 -45 4 -63z m-225 -166 c0 -87
-17 -133 -40 -110 -9 9 -9 17 -1 32 6 11 11 52 11 90 0 38 3 72 6 75 17 16 24
-11 24 -87z m55 -44 c-4 -26 -9 -56 -12 -67 -5 -18 -3 -18 20 4 24 22 27 22
33 7 14 -35 -91 -91 -121 -66 -13 11 -11 17 15 47 19 21 30 45 30 64 0 17 5
39 11 50 17 33 30 11 24 -39z m131 -20 c-8 -16 -23 -35 -32 -43 -16 -12 -17
-12 -9 1 14 23 48 70 52 70 2 0 -3 -13 -11 -28z m134 -61 c0 -5 -7 -12 -16
-15 -14 -5 -15 -4 -4 9 14 17 20 19 20 6z m-137 -78 c-13 -8 -23 -22 -23 -29
0 -8 -2 -14 -4 -14 -2 0 -12 -3 -22 -7 -13 -5 -11 3 10 30 16 20 36 37 45 36
12 0 11 -4 -6 -16z m85 -30 c25 9 46 11 56 5 25 -14 19 -28 -14 -28 -16 0 -30
-4 -30 -10 0 -5 15 -10 33 -10 28 -1 30 -2 13 -11 -22 -13 -103 -6 -119 10 -8
8 -3 10 21 5 21 -4 32 -3 32 5 0 36 -99 -12 -184 -90 l-29 -27 29 5 c50 8 124
34 124 44 0 15 48 10 88 -8 37 -17 37 -17 10 -20 -15 -3 -37 1 -49 8 -18 9
-24 8 -31 -4 -17 -31 -186 -68 -181 -40 2 9 -7 9 -35 -1 -34 -12 -37 -16 -37
-52 0 -22 -3 -44 -8 -51 -9 -15 6 -25 27 -17 12 5 15 2 10 -10 -3 -9 -14 -16
-24 -16 -11 0 -22 -5 -25 -11 -4 -6 -13 -8 -20 -5 -8 3 -19 -1 -25 -9 -9 -10
0 -25 43 -69 30 -31 59 -56 64 -56 6 0 22 10 37 21 26 21 32 21 139 11 114
-11 189 -34 153 -48 -9 -4 -36 -4 -59 -2 -57 7 -93 -3 -89 -27 3 -14 -1 -16
-15 -10 -35 15 -58 11 -59 -10 -2 -44 5 -42 -104 -31 -39 3 -80 17 -80 27 0
15 38 10 44 -6 5 -15 36 -21 36 -7 0 4 -12 21 -27 38 -16 18 -29 37 -31 45 -3
13 -32 38 -44 39 -12 0 -9 -14 5 -29 10 -11 8 -13 -12 -8 -14 3 -29 0 -37 -8
-19 -18 -18 -22 9 -29 17 -5 19 -8 8 -15 -11 -7 -10 -11 5 -20 11 -6 14 -11 8
-11 -6 0 -22 9 -36 19 -14 11 -33 20 -44 20 -42 1 -94 14 -94 23 0 6 9 8 21 5
30 -8 77 12 85 35 4 15 0 26 -17 40 l-24 19 33 -6 c20 -4 32 -3 32 4 0 6 -4
11 -10 11 -20 0 3 29 30 39 42 14 61 50 58 109 -2 28 -7 50 -12 49 -5 -1 -11
4 -13 11 -3 6 2 12 11 12 9 0 16 7 16 16 0 13 3 14 14 5 23 -20 59 -3 163 75
83 63 100 71 109 58 10 -13 17 -13 52 -1z m7 -153 c35 -16 37 -19 15 -19 -14
0 -36 8 -50 19 -31 24 -17 24 35 0z m-23 -36 c48 -25 51 -27 33 -40 -10 -8
-22 -14 -27 -14 -18 0 -6 -19 15 -23 12 -3 2 -3 -22 -1 -24 2 -50 9 -57 15 -7
6 -19 9 -26 7 -7 -3 11 -17 40 -32 30 -15 52 -30 49 -33 -11 -11 -65 9 -87 32
-31 33 -18 48 34 40 l41 -7 -43 29 c-48 32 -42 42 13 19 54 -23 68 -19 18 4
-24 10 -43 21 -43 25 0 9 9 6 62 -21z m-106 -5 c10 -16 -15 -29 -61 -30 l-40
-1 39 -12 c22 -7 42 -18 44 -24 6 -18 -47 -14 -94 7 -75 34 -66 52 31 62 33 3
63 7 67 7 4 1 10 -3 14 -9z m-81 -100 c10 -15 -1 -23 -20 -15 -9 3 -13 10 -10
16 8 13 22 13 30 -1z m121 -66 c-7 -7 -39 13 -61 38 -17 19 -14 18 23 -6 23
-15 40 -30 38 -32z m64 13 c0 -3 -4 -8 -10 -11 -5 -3 -10 -1 -10 4 0 6 5 11
10 11 6 0 10 -2 10 -4z m110 -31 c0 -8 2 -15 4 -15 2 0 20 7 39 15 46 19 53
19 37 0 -7 -9 -11 -18 -8 -20 8 -8 68 7 68 16 0 5 10 9 21 9 18 0 19 -2 9 -15
-7 -8 -19 -15 -26 -15 -8 0 -14 -5 -14 -11 0 -9 20 -10 68 -6 l67 7 -44 -23
-44 -22 66 -15 c37 -8 67 -18 67 -21 0 -7 -88 -29 -115 -29 -8 0 -15 -7 -15
-16 0 -23 -24 -11 -28 14 -4 25 -28 32 -60 18 -37 -16 -51 9 -16 28 l29 15
-25 1 -25 1 28 15 c37 20 34 28 -7 21 -28 -4 -34 -3 -29 9 6 17 -1 18 -28 4
-14 -8 -19 -7 -19 1 0 7 -9 9 -25 5 -28 -7 -32 5 -9 28 20 20 34 20 34 1z
m-630 -5 c-19 -13 -30 -13 -30 0 0 6 10 10 23 10 18 0 19 -2 7 -10z m536 -17
c-10 -10 -19 5 -10 18 6 11 8 11 12 0 2 -7 1 -15 -2 -18z m-621 -33 c4 -6 -6
-10 -22 -10 -16 0 -34 -5 -41 -12 -9 -9 -12 -7 -12 10 0 39 53 48 75 12z m139
14 c27 -26 -4 -45 -47 -28 -14 5 -13 8 1 25 20 23 26 24 46 3z m-109 -4 c3 -5
2 -10 -4 -10 -5 0 -13 5 -16 10 -3 6 -2 10 4 10 5 0 13 -4 16 -10z m255 -70
c0 -5 -4 -10 -10 -10 -5 0 -10 5 -10 10 0 6 5 10 10 10 6 0 10 -4 10 -10z
m-197 -50 c3 -11 -1 -23 -8 -28 -6 -4 -17 -23 -24 -42 -8 -26 -22 -40 -51 -53
-42 -20 -77 -19 -72 1 2 9 -5 9 -25 -1 -16 -8 -56 -23 -90 -33 -52 -15 -65
-24 -77 -49 -13 -28 -45 -61 -88 -94 -15 -11 -18 -11 -18 3 0 9 21 38 48 66
47 49 47 49 24 61 -22 12 -21 13 30 42 29 16 94 54 144 84 87 51 143 69 150
48 2 -5 -30 -26 -71 -45 -41 -19 -75 -38 -75 -42 0 -5 -10 -8 -22 -8 -20 -1
-123 -48 -107 -50 28 -2 163 56 196 84 21 17 23 18 29 2 4 -10 -1 -25 -12 -38
l-19 -20 33 20 c21 12 43 39 58 71 25 52 37 58 47 21z m1037 12 c0 -18 -53
-32 -117 -32 -76 0 -75 10 0 26 64 14 117 17 117 6z m-944 -23 c3 -6 1 -15 -5
-19 -9 -5 -8 -10 4 -20 8 -7 15 -16 15 -21 0 -16 -23 -10 -47 13 l-23 21 0
-25 c0 -16 -8 -29 -24 -37 -27 -15 -55 -6 -37 12 6 6 11 18 11 26 0 37 88 78
106 50z m374 -45 c0 -2 -9 0 -20 6 -11 6 -20 13 -20 16 0 2 9 0 20 -6 11 -6
20 -13 20 -16z m-291 7 c7 -5 10 -14 7 -20 -11 -17 -41 -13 -61 9 -18 20 -17
20 11 20 16 0 35 -4 43 -9z m-32 -67 c13 -36 -41 -38 -73 -3 -17 18 -16 19 25
19 29 0 43 -5 48 -16z m-87 -39 c33 -17 37 -27 16 -44 -17 -15 -41 -5 -60 24
-24 36 -5 45 44 20z m-72 -59 c-2 -19 -9 -31 -18 -31 -17 0 -24 27 -15 62 5
21 8 23 21 12 9 -7 14 -25 12 -43z m-634 19 c34 -27 46 -61 16 -45 -9 5 -19 7
-22 5 -2 -2 -11 11 -20 30 -18 41 -13 43 26 10z m563 -28 c-5 -36 -40 -88 -51
-76 -2 2 5 32 16 66 23 68 43 74 35 10z m-115 16 c-5 -10 -15 -31 -23 -47 -15
-31 -44 -54 -54 -44 -10 10 32 85 57 102 26 18 33 15 20 -11z m62 5 c-15 -49
-23 -64 -38 -77 -23 -19 -28 -10 -15 30 19 55 70 100 53 47z m-579 -42 c28
-10 33 -15 18 -15 -42 -2 -102 36 -103 63 0 5 10 0 23 -12 13 -12 41 -28 62
-36z m445 43 c0 -33 -55 -99 -82 -99 -18 0 -18 1 -1 28 36 58 83 99 83 71z
m-268 -29 c6 0 9 -3 5 -6 -10 -10 -47 7 -47 22 0 13 2 13 16 0 8 -9 20 -16 26
-16z m98 -5 c0 -11 -91 -56 -107 -52 -12 3 -1 12 37 30 54 26 70 31 70 22z"/>
<path d="M996 1700 c10 -52 23 -72 24 -34 0 16 -7 39 -15 50 -15 18 -16 17 -9
-16z"/>
<path d="M1151 1404 c0 -11 3 -14 6 -6 3 7 2 16 -1 19 -3 4 -6 -2 -5 -13z"/>
</g>
</svg>
